# xmcd CD database file
#
# Track frame offsets:
#	182
#	18717
#	38377
#	58175
#	76765
#	88817
#	102295
#	115002
#	127042
#	139107
#	152547
#	163897
#	179012
#	195590
#	208835
#	220825
#	233922
#
# Disc length: 3372 seconds
#
# Revision: 0
# Processed by: cddbd v1.5.1PL2 Copyright (c) Steve Scherf et al.
# Submitted via: CDex 1.51
#
DISCID=ec0d2a11
DTITLE=Sidney Bechet - Sidney Bechet
DYEAR=1993
DGENRE=Blues
TTITLE0=I'm speaking on my mind
TTITLE1=Never will I forget the blues
TTITLE2=The blues and Freud (part.1)
TTITLE3=The blues and Freud (part.2)
TTITLE4=Step down, step up
TTITLE5=Shakin loose
TTITLE6=Really the blues
TTITLE7=You got to give it same
TTITLE8=Come away blues
TTITLE9=Me miss stomp
TTITLE10=You can't do that
TTITLE11=Groowin in the minor
TTITLE12=I must have my boogie
TTITLE13=The sheik of Araby
TTITLE14=House party
TTITLE15=Leeve blues
TTITLE16=Jam up
EXTD=YEAR: 1993
EXTT0=
EXTT1=
EXTT2=
EXTT3=
EXTT4=
EXTT5=
EXTT6=
EXTT7=
EXTT8=
EXTT9=
EXTT10=
EXTT11=
EXTT12=
EXTT13=
EXTT14=
EXTT15=
EXTT16=
PLAYORDER=
